<svg width="20" height="13" viewBox="0 0 20 13" fill="none" xmlns="http://www.w3.org/2000/svg">
<path d="M18.9992 0H1C0.447715 0 0 0.447714 0 0.999999V11.82C0 12.3723 0.447715 12.82 0.999999 12.82H18.9992C19.5515 12.82 19.9992 12.3723 19.9992 11.82V1C19.9992 0.447715 19.5515 0 18.9992 0Z" fill="#16366F"/>
<path d="M11.5126 6.41C11.5126 8.95202 9.45195 11.0124 6.91 11.0124C4.36805 11.0124 2.30762 8.95192 2.30762 6.41C2.30762 3.86823 4.3681 1.80762 6.91 1.80762C9.45187 1.80762 11.5126 3.8683 11.5126 6.41Z" fill="#D9222A"/>
<path d="M13.0888 1.80762C11.8996 1.80762 10.816 2.25878 9.9992 2.99901C9.83279 3.15 9.67747 3.31276 9.53447 3.48606H10.4643C10.5917 3.64085 10.7088 3.80369 10.8152 3.97356H9.18361C9.08549 4.1305 8.99696 4.29326 8.91847 4.46092H11.0802C11.1544 4.6195 11.2195 4.78219 11.2751 4.94818H8.72361C8.66999 5.10805 8.62536 5.27076 8.58984 5.43557H11.4087C11.4777 5.75582 11.5124 6.0825 11.5123 6.4101C11.5123 6.92121 11.4289 7.41296 11.275 7.87209H8.72356C8.77904 8.03821 8.84406 8.20093 8.91829 8.35951H11.0802C11.0016 8.52719 10.913 8.68998 10.8149 8.847H9.18354C9.29005 9.01697 9.40738 9.17978 9.53442 9.33406H10.4641C10.3213 9.50769 10.1659 9.67061 9.99922 9.82153C10.8161 10.5617 11.8996 11.0126 13.0888 11.0126C15.6307 11.0126 17.6915 8.95213 17.6915 6.41023C17.6915 3.86853 15.6308 1.80785 13.0888 1.80785" fill="#EE9F2D"/>
<path d="M17.0794 8.97547C17.0794 8.8934 17.1459 8.82673 17.228 8.82673C17.3102 8.82673 17.3766 8.8934 17.3766 8.97547C17.3766 9.05749 17.3102 9.12416 17.228 9.12416C17.1459 9.12413 17.0794 9.05754 17.0794 8.97547ZM17.228 9.08849C17.2904 9.08847 17.341 9.03785 17.341 8.97547C17.341 8.91309 17.2905 8.86255 17.2281 8.86255H17.228C17.1657 8.86245 17.1152 8.91288 17.1151 8.97516V8.9755C17.115 9.03785 17.1655 9.08847 17.2279 9.08852C17.2279 9.08849 17.228 9.08849 17.228 9.08849ZM17.2079 9.0408H17.1775V8.91019H17.2326C17.2441 8.91019 17.2558 8.91019 17.266 8.9167C17.2766 8.92383 17.2826 8.93645 17.2826 8.94947C17.2826 8.96409 17.274 8.97778 17.26 8.98311L17.284 9.0408H17.2503L17.2303 8.98911H17.208L17.2079 9.0408ZM17.2079 8.9667H17.2248C17.2311 8.9667 17.2377 8.96721 17.2434 8.96414C17.2484 8.96093 17.251 8.95493 17.251 8.94916C17.251 8.94416 17.2479 8.93839 17.2436 8.93593C17.2383 8.93257 17.2299 8.93334 17.2242 8.93334H17.2079V8.9667ZM5.83659 6.91389C5.78416 6.90781 5.76108 6.90617 5.72506 6.90617C5.44186 6.90617 5.29848 7.00332 5.29848 7.19508C5.29848 7.31331 5.36848 7.38856 5.47763 7.38856C5.68116 7.38856 5.82785 7.19472 5.83659 6.91389ZM6.19993 7.7599H5.78595L5.79546 7.56309C5.66919 7.71865 5.50071 7.79257 5.27177 7.79257C5.00096 7.79257 4.81527 7.58104 4.81527 7.2739C4.81527 6.81176 5.13823 6.54213 5.6926 6.54213C5.74921 6.54213 5.82185 6.54726 5.8962 6.55672C5.91171 6.49413 5.91577 6.46734 5.91577 6.43365C5.91577 6.30781 5.82869 6.26089 5.59527 6.26089C5.35084 6.25812 5.14923 6.31911 5.06644 6.34637C5.07167 6.31483 5.13567 5.91926 5.13567 5.91926C5.38468 5.84629 5.54891 5.81883 5.73372 5.81883C6.16276 5.81883 6.39 6.01144 6.38959 6.37552C6.39041 6.47308 6.37429 6.59346 6.34908 6.75169C6.3057 7.02683 6.21268 7.61622 6.19993 7.7599ZM4.6062 7.7599H4.10653L4.39275 5.96518L3.75367 7.7599H3.41317L3.37112 5.97544L3.07026 7.7599H2.60254L2.99324 5.42528H3.71167L3.75526 6.73205L4.1935 5.42528H4.99262L4.6062 7.7599ZM13.7079 6.91389C13.6557 6.90781 13.6325 6.90617 13.5966 6.90617C13.3135 6.90617 13.1701 7.00332 13.1701 7.19508C13.1701 7.31331 13.24 7.38856 13.3491 7.38856C13.5527 7.38856 13.6995 7.19472 13.7079 6.91389ZM14.0715 7.7599H13.6576L13.6669 7.56309C13.5407 7.71865 13.3721 7.79257 13.1434 7.79257C12.8725 7.79257 12.687 7.58104 12.687 7.2739C12.687 6.81176 13.0097 6.54213 13.5642 6.54213C13.6208 6.54213 13.6933 6.54726 13.7676 6.55672C13.7831 6.49413 13.7872 6.46734 13.7872 6.43365C13.7872 6.30781 13.7002 6.26089 13.4668 6.26089C13.2223 6.25812 13.0209 6.31911 12.9378 6.34637C12.9431 6.31483 13.0073 5.91926 13.0073 5.91926C13.2563 5.84629 13.4204 5.81883 13.605 5.81883C14.0342 5.81883 14.2615 6.01144 14.2611 6.37552C14.2619 6.47308 14.2458 6.59346 14.2206 6.75169C14.1774 7.02683 14.0842 7.61622 14.0715 7.7599ZM8.42074 7.73106C8.28398 7.77413 8.17737 7.79257 8.06178 7.79257C7.80633 7.79257 7.66693 7.64578 7.66693 7.37548C7.66329 7.29164 7.70367 7.07091 7.73538 6.86943C7.76423 6.69207 7.95204 5.57384 7.95204 5.57384H8.44872L8.39072 5.86124H8.69071L8.62294 6.31753H8.32187C8.26418 6.67861 8.18203 7.12839 8.18109 7.188C8.18109 7.28587 8.23331 7.32859 8.3521 7.32859C8.40905 7.32859 8.45315 7.32279 8.48684 7.31064L8.42074 7.73106ZM9.94353 7.71567C9.77292 7.7678 9.60828 7.79303 9.43383 7.79259C8.87788 7.79206 8.58804 7.50168 8.58804 6.94565C8.58804 6.29663 8.95675 5.81885 9.45724 5.81885C9.86671 5.81885 10.1282 6.08635 10.1282 6.5059C10.1282 6.6451 10.1103 6.78099 10.067 6.97286H9.07797C9.04454 7.24828 9.22079 7.36302 9.50967 7.36302C9.68749 7.36302 9.84781 7.32636 10.0261 7.24346L9.94353 7.71567ZM9.66438 6.59008C9.66713 6.55052 9.71705 6.25119 9.43329 6.25119C9.27507 6.25119 9.16194 6.37181 9.11587 6.59008H9.66438ZM6.4999 6.46144C6.4999 6.70161 6.61633 6.8672 6.88042 6.99158C7.08277 7.08667 7.11408 7.11488 7.11408 7.20105C7.11408 7.31943 7.02485 7.37284 6.82711 7.37284C6.67809 7.37284 6.53943 7.34959 6.37949 7.29797C6.37949 7.29797 6.31378 7.71642 6.31078 7.73644C6.42436 7.76121 6.52564 7.78416 6.83075 7.79259C7.35796 7.79259 7.60144 7.59186 7.60144 7.158C7.60144 6.89712 7.49952 6.74402 7.24922 6.62897C7.03972 6.53282 7.01567 6.51134 7.01567 6.42267C7.01567 6.32001 7.09869 6.26766 7.26022 6.26766C7.3583 6.26766 7.49227 6.27812 7.61918 6.29619L7.69034 5.85583C7.56096 5.83531 7.36481 5.81885 7.25061 5.81885C6.69166 5.81885 6.49818 6.11082 6.4999 6.46144ZM12.3738 5.86875C12.5126 5.86875 12.6419 5.90516 12.8202 5.9949L12.9019 5.4882C12.8288 5.45948 12.5711 5.29077 12.3528 5.29077C12.0184 5.29077 11.7358 5.45666 11.537 5.7305C11.247 5.63445 11.1278 5.82857 10.9816 6.02195L10.8519 6.05218C10.8617 5.98851 10.8706 5.92526 10.8676 5.86126H10.4087C10.346 6.44885 10.2349 7.04403 10.1479 7.63234L10.1253 7.75993H10.6251C10.7086 7.21782 10.7543 6.87071 10.7821 6.63582L10.9703 6.53111C10.9984 6.4265 11.0865 6.39116 11.263 6.39542C11.2393 6.52382 11.2274 6.65413 11.2276 6.78474C11.2276 7.40587 11.5627 7.79259 12.1006 7.79259C12.2392 7.79259 12.3581 7.77434 12.5422 7.72447L12.6301 7.19218C12.4645 7.27372 12.3286 7.31208 12.2055 7.31208C11.9151 7.31208 11.7393 7.09767 11.7393 6.74328C11.7393 6.2292 12.0007 5.86875 12.3738 5.86875Z" fill="black"/>
<path d="M4.74878 7.62118H4.24903L4.53543 5.82669L3.89635 7.62118H3.5558L3.5137 5.83695L3.21287 7.62118H2.74512L3.13582 5.28687H3.85425L3.87446 6.73199L4.35916 5.28687H5.1352L4.74878 7.62118Z" fill="white"/>
<path d="M16.6019 5.42529L16.4912 6.09983C16.3545 5.92004 16.2078 5.78992 16.014 5.78992C15.7618 5.78992 15.5324 5.98104 15.3822 6.26234C15.173 6.21895 14.9566 6.14534 14.9566 6.14534L14.9565 6.14706C14.9734 5.98981 14.9801 5.89386 14.9786 5.86128H14.5196C14.4572 6.44887 14.3461 7.04405 14.2592 7.63236L14.2363 7.75994H14.7361C14.8036 7.32158 14.8553 6.95759 14.8934 6.66894C15.0641 6.51466 15.1495 6.38005 15.3221 6.38902C15.2457 6.57379 15.2009 6.78655 15.2009 7.00482C15.2009 7.47949 15.4411 7.79261 15.8043 7.79261C15.9874 7.79261 16.1279 7.72948 16.265 7.58313L16.2416 7.75964H16.7142L17.0948 5.42529H16.6019ZM15.9771 7.32117C15.807 7.32117 15.7211 7.1953 15.7211 6.9469C15.7211 6.57376 15.8819 6.3091 16.1086 6.3091C16.2802 6.3091 16.3732 6.43997 16.3732 6.68109C16.3732 7.05751 16.2099 7.32117 15.9771 7.32117Z" fill="black"/>
<path d="M5.97912 6.77558C5.92676 6.76953 5.90359 6.76789 5.86769 6.76789C5.58447 6.76789 5.44119 6.86501 5.44119 7.05678C5.44119 7.17482 5.51119 7.25028 5.62016 7.25028C5.82387 7.25025 5.97056 7.05647 5.97912 6.77558ZM6.34267 7.62129H5.92869L5.9381 7.42481C5.81192 7.58004 5.64324 7.65429 5.4145 7.65429C5.14356 7.65429 4.95801 7.44276 4.95801 7.13562C4.95801 6.67328 5.28084 6.4038 5.83531 6.4038C5.89194 6.4038 5.96458 6.40893 6.03884 6.41844C6.05432 6.35583 6.05837 6.32904 6.05837 6.29517C6.05837 6.16932 5.97143 6.12261 5.73798 6.12261C5.49345 6.11984 5.29197 6.18086 5.20905 6.20778C5.21428 6.17635 5.27828 5.78119 5.27828 5.78119C5.52722 5.70791 5.69162 5.68042 5.87623 5.68042C6.30539 5.68042 6.53271 5.87318 6.5323 6.23694C6.53305 6.33488 6.51679 6.45518 6.49169 6.6132C6.44844 6.88819 6.35529 7.47791 6.34267 7.62129ZM13.0445 5.34979L12.9626 5.85662C12.7844 5.76698 12.6549 5.73044 12.5163 5.73044C12.1432 5.73044 11.8817 6.09089 11.8817 6.60495C11.8817 6.95932 12.0575 7.17367 12.3479 7.17367C12.471 7.17367 12.6068 7.13541 12.7724 7.05375L12.6847 7.58578C12.5005 7.63601 12.3817 7.65429 12.243 7.65429C11.7052 7.65429 11.37 7.26754 11.37 6.64641C11.37 5.81183 11.833 5.22852 12.4952 5.22852C12.7134 5.22854 12.9712 5.32105 13.0445 5.34979ZM13.8506 6.77558C13.7983 6.76953 13.7752 6.76789 13.7392 6.76789C13.4561 6.76789 13.3127 6.86501 13.3127 7.05678C13.3127 7.17482 13.3827 7.25028 13.4918 7.25028C13.6953 7.25025 13.8421 7.05647 13.8506 6.77558ZM14.2142 7.62129H13.8001L13.8096 7.42481C13.6833 7.58004 13.5147 7.65429 13.286 7.65429C13.0152 7.65429 12.8295 7.44276 12.8295 7.13562C12.8295 6.67328 13.1524 6.4038 13.7067 6.4038C13.7635 6.4038 13.836 6.40893 13.9103 6.41844C13.9257 6.35583 13.9299 6.32904 13.9299 6.29517C13.9299 6.16932 13.8429 6.12261 13.6095 6.12261C13.3651 6.11984 13.1634 6.18086 13.0806 6.20778C13.0858 6.17635 13.1499 5.78119 13.1499 5.78119C13.3988 5.70791 13.5631 5.68042 13.7477 5.68042C14.177 5.68042 14.4042 5.87318 14.4037 6.23694C14.4045 6.33488 14.3884 6.45518 14.3632 6.6132C14.32 6.88819 14.2267 7.47791 14.2142 7.62129ZM8.56338 7.59252C8.42651 7.6356 8.3199 7.65429 8.20442 7.65429C7.94897 7.65429 7.80956 7.50748 7.80956 7.23723C7.80602 7.15311 7.84641 6.9326 7.87815 6.73115C7.90686 6.55357 8.0947 5.43548 8.0947 5.43548H8.59127L8.53335 5.72296H8.78826L8.72042 6.17904H8.46466C8.40697 6.54033 8.32459 6.98975 8.32374 7.04949C8.32374 7.14769 8.3761 7.19008 8.49479 7.19008C8.55171 7.19008 8.59576 7.18451 8.6295 7.17234L8.56338 7.59252ZM10.0862 7.57737C9.91568 7.6295 9.75082 7.65462 9.57646 7.65429C9.02049 7.65375 8.73068 7.36338 8.73068 6.80732C8.73068 6.15809 9.09938 5.68045 9.59987 5.68045C10.0093 5.68045 10.2709 5.94785 10.2709 6.3676C10.2709 6.5069 10.2529 6.64279 10.2098 6.83455H9.22073C9.18725 7.10995 9.36352 7.22482 9.65243 7.22482C9.83012 7.22482 9.99058 7.18805 10.1687 7.10493L10.0862 7.57737ZM9.80692 6.45147C9.80992 6.41203 9.85971 6.11258 9.57582 6.11258C9.41773 6.11258 9.30458 6.23353 9.25853 6.45147H9.80692ZM6.64243 6.32316C6.64243 6.56328 6.75888 6.72869 7.02298 6.85327C7.2253 6.94834 7.25661 6.97665 7.25661 7.06275C7.25661 7.18113 7.1673 7.23454 6.96977 7.23454C6.82063 7.23454 6.68196 7.21126 6.52192 7.15967C6.52192 7.15967 6.45643 7.57811 6.45346 7.59811C6.56679 7.62291 6.66817 7.64555 6.97329 7.65429C7.50062 7.65429 7.744 7.45355 7.744 7.0198C7.744 6.75879 7.64218 6.60572 7.39176 6.49067C7.18235 6.39431 7.15812 6.37316 7.15812 6.28437C7.15812 6.18181 7.24133 6.12904 7.40276 6.12904C7.50073 6.12904 7.6347 6.13981 7.76182 6.15789L7.83287 5.71739C7.70362 5.69688 7.50747 5.68045 7.39324 5.68045C6.83419 5.68045 6.64084 5.9722 6.64243 6.32316ZM16.8587 7.62129H16.386L16.4095 7.44456C16.2724 7.59114 16.1319 7.65429 15.9488 7.65429C15.5855 7.65429 15.3455 7.34115 15.3455 6.8665C15.3455 6.23499 15.7178 5.70262 16.1585 5.70262C16.3523 5.70262 16.499 5.7818 16.6355 5.96149L16.7464 5.28695H17.2392L16.8587 7.62129ZM16.1217 7.18262C16.3543 7.18262 16.5178 6.91896 16.5178 6.54282C16.5178 6.30168 16.4247 6.17081 16.2531 6.17081C16.0265 6.17081 15.8655 6.43534 15.8655 6.80861C15.8655 7.05696 15.9516 7.18262 16.1217 7.18262ZM14.6642 5.72296C14.6017 6.31055 14.4905 6.90573 14.4037 7.49373L14.3808 7.62129H14.8806C15.0593 6.46044 15.1026 6.23373 15.3828 6.26214C15.4275 6.02456 15.5105 5.81644 15.5725 5.71142C15.3632 5.66783 15.2463 5.78611 15.0933 6.01077C15.1054 5.91367 15.1276 5.81934 15.1232 5.72296H14.6642ZM10.551 5.72296C10.4883 6.31055 10.3772 6.90573 10.2904 7.49373L10.2676 7.62129H10.7676C10.9461 6.46044 10.9893 6.23373 11.2693 6.26214C11.3142 6.02456 11.3973 5.81644 11.4591 5.71142C11.25 5.66783 11.133 5.78611 10.9802 6.01077C10.9922 5.91367 11.0141 5.81934 11.01 5.72296H10.551ZM17.0782 7.47268C17.0782 7.39027 17.1448 7.32397 17.2268 7.32397C17.3088 7.32389 17.3753 7.3903 17.3754 7.4723V7.47268C17.3754 7.55473 17.3089 7.62124 17.2268 7.62129C17.1448 7.62124 17.0783 7.55473 17.0782 7.47268ZM17.2268 7.5856C17.2892 7.58563 17.3397 7.53509 17.3397 7.47276V7.47271C17.3398 7.41033 17.2893 7.35974 17.2269 7.35969H17.2268C17.1644 7.35971 17.1138 7.4103 17.1138 7.47271C17.1139 7.53506 17.1644 7.5856 17.2268 7.5856ZM17.2067 7.53765H17.1763V7.4073H17.2315C17.2429 7.4073 17.2548 7.40751 17.2647 7.41381C17.2754 7.42107 17.2815 7.43348 17.2815 7.44648C17.2815 7.46122 17.2728 7.47502 17.2587 7.48025L17.2828 7.53758H17.249L17.229 7.48609H17.2067V7.53758V7.53765ZM17.2067 7.46381H17.2235C17.2298 7.46381 17.2366 7.46427 17.2422 7.46125C17.2472 7.45804 17.2497 7.45199 17.2497 7.4462C17.2495 7.44081 17.2468 7.43584 17.2424 7.43276C17.2372 7.42976 17.2285 7.43058 17.2228 7.43058H17.2067L17.2067 7.46381Z" fill="white"/>
</svg>
