<svg width="32" height="13" viewBox="0 0 32 13" fill="none" xmlns="http://www.w3.org/2000/svg">
<path d="M2.19559 5.09413C2.19559 4.75567 2.4733 4.6255 2.93324 4.6255C3.59279 4.6255 4.4259 4.8251 5.08545 5.18091V3.14152C4.36515 2.85514 3.65354 2.74232 2.93324 2.74232C1.17156 2.74232 0 3.66222 0 5.19826C0 7.59346 3.29773 7.21162 3.29773 8.24433C3.29773 8.64352 2.9506 8.7737 2.46462 8.7737C1.74433 8.7737 0.824433 8.47864 0.0954606 8.07944V10.1449C0.902537 10.492 1.71829 10.6395 2.46462 10.6395C4.26969 10.6395 5.51068 9.74566 5.51068 8.19226C5.502 5.60614 2.19559 6.06609 2.19559 5.09413ZM8.06208 1.00668L5.94459 1.45794L5.93591 8.40921C5.93591 9.69359 6.8992 10.6395 8.18358 10.6395C8.89519 10.6395 9.41589 10.5093 9.70227 10.3531V8.59146C9.42457 8.70427 8.0534 9.10347 8.0534 7.81909V4.73832H9.70227V2.88985H8.0534L8.06208 1.00668ZM12.4012 3.53204L12.2624 2.88985H10.3879V10.4833H12.5574V5.33712C13.0694 4.66889 13.9372 4.79039 14.2063 4.88585V2.88985C13.9286 2.78571 12.9132 2.59479 12.4012 3.53204ZM14.7356 2.88985H16.9139V10.4833H14.7356V2.88985ZM14.7356 2.23031L16.9139 1.76168V0L14.7356 0.459947V2.23031ZM21.4439 2.74232C20.5935 2.74232 20.0467 3.14152 19.743 3.41923L19.6302 2.88117H17.721V13L19.8905 12.5401L19.8992 10.0841C20.2116 10.3097 20.6716 10.6308 21.4352 10.6308C22.9887 10.6308 24.4032 9.38117 24.4032 6.63017C24.3945 4.11348 22.9626 2.74232 21.4439 2.74232ZM20.9232 8.72163C20.4112 8.72163 20.1075 8.53939 19.8992 8.31375L19.8905 5.09413C20.1162 4.84246 20.4286 4.66889 20.9232 4.66889C21.7129 4.66889 22.2597 5.55407 22.2597 6.69092C22.2597 7.85381 21.7216 8.72163 20.9232 8.72163ZM31.2417 6.71696C31.2417 4.49533 30.1656 2.74232 28.1088 2.74232C26.0434 2.74232 24.7937 4.49533 24.7937 6.6996C24.7937 9.31175 26.269 10.6308 28.3865 10.6308C29.4192 10.6308 30.2003 10.3965 30.7904 10.0668V8.33111C30.2003 8.62617 29.5234 8.80841 28.6642 8.80841C27.8224 8.80841 27.0761 8.51335 26.9806 7.48932H31.2243C31.2243 7.3765 31.2417 6.92523 31.2417 6.71696ZM26.9546 5.89252C26.9546 4.91188 27.5534 4.50401 28.1001 4.50401C28.6295 4.50401 29.1936 4.91188 29.1936 5.89252H26.9546Z" fill="#6772E5"/>
</svg>
