<svg width="20" height="13" viewBox="0 0 20 13" fill="none" xmlns="http://www.w3.org/2000/svg">
<path d="M1.02564 0H18.9744C19.5408 0 20 0.459205 20 1.02564V11.7949C20 12.3613 19.5408 12.8205 18.9744 12.8205H1.02564C0.459205 12.8205 0 12.3613 0 11.7949V1.02564C0 0.459205 0.459205 0 1.02564 0Z" fill="#0E4595"/>
<path d="M7.51803 8.94193L8.37344 3.92244H9.74165L8.88562 8.94193H7.51803ZM13.8285 4.03064C13.5575 3.92895 13.1327 3.81982 12.6023 3.81982C11.2504 3.81982 10.2981 4.50059 10.29 5.47631C10.2824 6.19759 10.9699 6.59995 11.4888 6.84005C12.0214 7.08608 12.2004 7.24298 12.1979 7.4627C12.1945 7.79913 11.7726 7.95285 11.3794 7.95285C10.8317 7.95285 10.5408 7.87677 10.0915 7.68936L9.91518 7.60962L9.72316 8.73329C10.0427 8.87339 10.6337 8.99477 11.2472 9.00105C12.6854 9.00105 13.619 8.32808 13.6297 7.28613C13.6348 6.71513 13.2703 6.28059 12.4809 5.92234C12.0027 5.69016 11.7099 5.53518 11.713 5.30008C11.713 5.09144 11.9609 4.86831 12.4965 4.86831C12.9439 4.86139 13.268 4.95895 13.5205 5.06062L13.6431 5.11857L13.8285 4.03064ZM17.3493 3.92236H16.2921C15.9646 3.92236 15.7195 4.01177 15.5756 4.33862L13.5437 8.93862H14.9804C14.9804 8.93862 15.2153 8.32008 15.2684 8.18431C15.4255 8.18431 16.8211 8.18646 17.0207 8.18646C17.0616 8.36218 17.1871 8.93862 17.1871 8.93862H18.4567L17.3493 3.92221V3.92236ZM15.6719 7.16364C15.7851 6.87444 16.2171 5.76049 16.2171 5.76049C16.209 5.77388 16.3293 5.46988 16.3984 5.28141L16.4909 5.71421C16.4909 5.71421 16.7529 6.91239 16.8076 7.16364H15.6719ZM6.35654 3.92236L5.01706 7.34544L4.87431 6.6498C4.62495 5.84793 3.84803 4.97916 2.97949 4.54421L4.20426 8.93395L5.65185 8.93231L7.8058 3.92231H6.35654" fill="white"/>
<path d="M3.76759 3.92222H1.56141L1.54395 4.02666C3.2603 4.44215 4.396 5.44622 4.86753 6.65256L4.38779 4.34589C4.30497 4.02807 4.06479 3.93322 3.76764 3.92212" fill="#F2AE14"/>
</svg>
