<svg width="125" height="26" viewBox="0 0 125 26" fill="none" xmlns="http://www.w3.org/2000/svg">
<path opacity="0.5" d="M114.313 14.489C114.525 15.4992 115.013 16.279 115.775 16.8284C116.537 17.3601 117.467 17.6259 118.566 17.6259C120.09 17.6259 121.233 17.0765 121.995 15.9777L124.362 17.3601C123.05 19.2919 121.109 20.2578 118.54 20.2578C116.377 20.2578 114.632 19.602 113.302 18.2905C111.973 16.9613 111.309 15.2865 111.309 13.2661C111.309 11.2811 111.964 9.62404 113.276 8.29483C114.587 6.94788 116.271 6.27441 118.327 6.27441C120.276 6.27441 121.871 6.95675 123.112 8.32141C124.37 9.68607 125 11.3432 125 13.2927C125 13.594 124.964 13.9927 124.893 14.489H114.313ZM114.286 12.1496H122.102C121.907 11.0685 121.455 10.2532 120.746 9.7038C120.055 9.15439 119.24 8.87968 118.3 8.87968C117.237 8.87968 116.351 9.17211 115.642 9.75696C114.933 10.3418 114.481 11.1394 114.286 12.1496Z" fill="white"/>
<g opacity="0.5">
<path d="M6.59187 1.34052C8.27816 1.34052 9.68341 1.92467 10.8076 3.09299C11.9488 4.26129 12.5194 5.71283 12.5194 7.44759C12.5194 9.16466 11.9488 10.6162 10.8076 11.8022C9.68341 12.9705 8.27816 13.5547 6.59187 13.5547H2.93824V19.9273H0V1.34052H6.59187ZM6.59187 10.687C7.46057 10.687 8.17596 10.3861 8.73806 9.78421C9.30016 9.16466 9.58121 8.38578 9.58121 7.44759C9.58121 6.50941 9.30016 5.73938 8.73806 5.13753C8.17596 4.51797 7.46057 4.20819 6.59187 4.20819H2.93824V10.687H6.59187Z" fill="white"/>
<path d="M16.635 8.88143C17.3333 7.23518 18.6449 6.41205 20.5697 6.41205V9.51869C19.5136 9.44788 18.5938 9.71341 17.8103 10.3153C17.0267 10.8994 16.635 11.873 16.635 13.236V19.9273H13.8756V6.65102H16.635V8.88143Z" fill="white"/>
<path d="M49.6969 6.30584C51.1447 6.30584 52.3115 6.79263 53.1973 7.76622C54.083 8.73982 54.5258 10.0497 54.5258 11.696V19.9273H51.7665V11.8819C51.7665 10.9614 51.545 10.2533 51.1022 9.75766C50.6593 9.24431 50.0546 8.98764 49.2881 8.98764C48.4365 8.98764 47.7551 9.27972 47.2441 9.86387C46.7502 10.448 46.5032 11.3243 46.5032 12.4926V19.9273H43.7438V11.8819C43.7438 10.9614 43.5309 10.2533 43.105 9.75766C42.6962 9.24431 42.1086 8.98764 41.3421 8.98764C40.5075 8.98764 39.8261 9.28857 39.2981 9.89042C38.7701 10.4746 38.5061 11.342 38.5061 12.4926V19.9273H35.7467V6.65102H38.5061V8.24417C39.3237 6.95195 40.5415 6.30584 42.1597 6.30584C43.7949 6.30584 45.0043 7.00505 45.7878 8.40348C46.6394 7.00505 47.9425 6.30584 49.6969 6.30584Z" fill="white"/>
<path d="M63.9432 6.30584C65.6976 6.30584 67.1965 6.98735 68.4399 8.35038C69.6834 9.69571 70.3051 11.342 70.3051 13.2891C70.3051 15.254 69.6834 16.9091 68.4399 18.2545C67.1965 19.5998 65.6976 20.2725 63.9432 20.2725C62.0014 20.2725 60.511 19.529 59.4719 18.042V25.2378H56.7126V6.65102H59.4719V8.5628C60.511 7.05816 62.0014 6.30584 63.9432 6.30584ZM60.6217 16.3427C61.3882 17.1393 62.3506 17.5375 63.5088 17.5375C64.6671 17.5375 65.6295 17.1393 66.396 16.3427C67.1625 15.5284 67.5457 14.5106 67.5457 13.2891C67.5457 12.0677 67.1625 11.0587 66.396 10.2622C65.6295 9.44788 64.6671 9.04074 63.5088 9.04074C62.3506 9.04074 61.3882 9.44788 60.6217 10.2622C59.8552 11.0587 59.4719 12.0677 59.4719 13.2891C59.4719 14.5106 59.8552 15.5284 60.6217 16.3427Z" fill="white"/>
<path d="M78.9184 9.41248H75.7502V15.7851C75.7502 16.3338 75.8694 16.7321 76.1079 16.9799C76.3464 17.2101 76.6956 17.3428 77.1554 17.3782C77.6324 17.3959 78.22 17.3871 78.9184 17.3517V19.9273C76.8063 20.1928 75.2903 20.0069 74.3705 19.3697C73.4507 18.7147 72.9908 17.5198 72.9908 15.7851V9.41248H70.6402V6.65102H72.9908V3.78335L75.7502 2.93367V6.65102H78.9184V9.41248Z" fill="white"/>
<path d="M80.6546 19.9273V0.543945H83.414V19.9273H80.6546Z" fill="white"/>
<path d="M88.4575 4.12853C88.1168 4.48256 87.708 4.65958 87.2311 4.65958C86.7542 4.65958 86.3368 4.48256 85.9791 4.12853C85.6385 3.7568 85.4681 3.32311 85.4681 2.82746C85.4681 2.33181 85.6385 1.90697 85.9791 1.55294C86.3198 1.1812 86.7371 0.995337 87.2311 0.995337C87.725 0.995337 88.1424 1.1812 88.483 1.55294C88.8237 1.90697 88.994 2.33181 88.994 2.82746C88.994 3.32311 88.8152 3.7568 88.4575 4.12853ZM85.8514 19.9273V6.65102H88.6108V19.9273H85.8514Z" fill="white"/>
<path d="M104.998 6.30584C106.446 6.30584 107.613 6.79263 108.499 7.76622C109.385 8.73982 109.827 10.0497 109.827 11.696V19.9273H107.068V11.8819C107.068 10.9614 106.847 10.2533 106.404 9.75766C105.961 9.24431 105.356 8.98764 104.59 8.98764C103.738 8.98764 103.057 9.27972 102.546 9.86387C102.052 10.448 101.805 11.3243 101.805 12.4926V19.9273H99.0453V11.8819C99.0453 10.9614 98.8324 10.2533 98.4066 9.75766C97.9978 9.24431 97.4101 8.98764 96.6436 8.98764C95.809 8.98764 95.1277 9.28857 94.5996 9.89042C94.0716 10.4746 93.8076 11.342 93.8076 12.4926V19.9273H91.0482V6.65102H93.8076V8.24417C94.6252 6.95195 95.8431 6.30584 97.4612 6.30584C99.0964 6.30584 100.306 7.00505 101.089 8.40348C101.941 7.00505 103.244 6.30584 104.998 6.30584Z" fill="white"/>
</g>
<g opacity="0.5">
<path d="M33.7471 14.999C33.6708 15.3466 33.5841 15.6933 33.4538 16.0241C33.1676 16.7508 32.6784 17.3802 32.0994 17.8864C30.9859 18.8425 29.6154 19.4907 28.1789 19.7236C26.9561 19.9045 25.7276 19.5368 24.6348 18.9945C24.741 19.1804 24.9115 19.3125 25.054 19.4674C25.37 19.7954 25.7334 20.0681 26.0798 20.3599C26.7848 20.5532 27.5307 20.5614 28.2575 20.5211C29.7874 20.3831 31.2516 19.7217 32.4382 18.7338C32.9248 18.3267 33.326 17.8165 33.6216 17.2501C34.0733 16.3991 34.3135 15.4458 34.4279 14.4893C34.2136 14.6624 34.0043 14.847 33.7542 14.9648L33.7471 14.999H33.7471Z" fill="white"/>
<path d="M28.4347 13.4265C29.5811 13.4745 30.728 13.5202 31.8726 13.5992C32.198 13.6395 32.6099 13.733 32.7407 14.0824C32.8309 14.4652 32.7775 14.8706 32.6655 15.2429C32.6632 15.2488 32.6591 15.2601 32.6568 15.266C32.3715 16.0673 31.8705 16.8485 31.0999 17.229C30.799 17.3952 30.421 17.2835 30.2067 17.0255C29.9872 16.7602 29.7926 16.4745 29.5874 16.1978C29.3509 15.8566 29.0831 15.5379 28.863 15.185L28.8563 15.2004C28.6397 14.8647 28.3965 14.5482 28.1733 14.2175C28.0805 14.0669 27.9742 13.9061 27.9746 13.7217C28.001 13.5025 28.2428 13.406 28.4347 13.4265ZM30.6369 15.9133C30.6156 15.9213 30.5991 15.9347 30.5896 15.9538C30.585 15.9632 30.5816 15.9741 30.581 15.9866C30.5797 16.012 30.5884 16.0437 30.6089 16.083C30.6214 16.1067 30.6373 16.128 30.6552 16.1477C30.6733 16.1674 30.6934 16.1855 30.7131 16.2036C30.7534 16.2405 30.884 16.3229 30.9871 16.3541C31.0129 16.3619 31.037 16.3667 31.0575 16.3666V16.3657C31.1192 16.3656 31.1488 16.3239 31.0951 16.1978C31.0542 16.1018 30.9454 15.9944 30.8376 15.9403C30.8086 15.9257 30.7794 15.915 30.7517 15.9094C30.711 15.9013 30.669 15.9011 30.6369 15.9133ZM29.0559 14.2368C28.9832 14.195 28.8946 14.1842 28.8688 14.257C28.8601 14.2807 28.8594 14.3139 28.8669 14.3574C28.876 14.4103 28.9022 14.4584 28.9286 14.5049C28.9803 14.5968 29.2959 14.9515 29.2952 14.666C29.2952 14.6523 29.2948 14.6366 29.2932 14.6197C29.2835 14.5156 29.2138 14.3795 29.1283 14.2937C29.1051 14.2705 29.0804 14.2509 29.0559 14.2368ZM31.3787 14.2368C31.306 14.195 31.2173 14.1842 31.1916 14.257C31.1829 14.2807 31.1822 14.314 31.1896 14.3574C31.1988 14.4103 31.2251 14.4584 31.2514 14.5049C31.3031 14.5967 31.6186 14.9514 31.6179 14.666C31.6179 14.6523 31.6175 14.6366 31.616 14.6197C31.6064 14.5156 31.5367 14.3795 31.451 14.2937C31.4278 14.2705 31.4032 14.2509 31.3787 14.2368Z" fill="white"/>
<path d="M26.7396 13.4699C26.8954 13.46 27.0842 13.5122 27.1399 13.6802C27.2044 13.8591 27.0717 14.0184 26.9798 14.1567C26.325 15.0675 25.6598 15.9698 24.9889 16.8682C24.8362 17.0889 24.6412 17.3074 24.3715 17.365C24.0958 17.4156 23.854 17.2303 23.651 17.065C22.8608 16.3588 22.336 15.31 22.3623 14.2242C22.3761 13.9635 22.5996 13.7805 22.8205 13.6927C23.1275 13.5608 23.4651 13.5749 23.7908 13.5645C24.0967 13.5521 24.4029 13.5499 24.7082 13.5307C25.3854 13.5151 26.0625 13.4822 26.7396 13.4699ZM24.8818 15.321C24.8602 15.297 24.8146 15.2961 24.7323 15.3355C24.6395 15.3799 24.5373 15.4939 24.4873 15.6056C24.4738 15.6357 24.464 15.6658 24.4593 15.6943C24.4479 15.7641 24.4598 15.8366 24.5075 15.8592C24.5359 15.8737 24.5768 15.8704 24.6339 15.8371C24.6797 15.8103 24.7156 15.7683 24.7497 15.7271C24.8024 15.6632 24.9486 15.3888 24.8818 15.321ZM23.7581 14.2059C23.7161 14.201 23.6741 14.2089 23.6327 14.2185C23.6221 14.2209 23.6113 14.2226 23.6008 14.2252C23.5919 14.2274 23.5813 14.2338 23.568 14.2387C23.5033 14.2626 23.3961 14.3126 23.3269 14.3689C23.2409 14.4385 23.2113 14.5143 23.3886 14.5503C23.489 14.5705 23.6368 14.5405 23.7417 14.4808C23.7582 14.4714 23.772 14.4589 23.786 14.448C23.7964 14.4401 23.8082 14.4345 23.8169 14.4258C23.896 14.3472 23.9304 14.2262 23.7581 14.2059ZM26.3027 14.0304C26.2672 14.0262 26.2317 14.0309 26.1966 14.0381C26.1802 14.0415 26.1636 14.0447 26.1474 14.0487C26.1339 14.052 26.1159 14.0617 26.0934 14.0709C25.9398 14.1327 25.6272 14.3116 25.9332 14.3738C25.9583 14.3788 25.9866 14.3794 26.0162 14.3786C26.1054 14.3764 26.2091 14.3494 26.2882 14.3043C26.3165 14.2882 26.3422 14.2694 26.3625 14.2493C26.4413 14.1706 26.4758 14.0507 26.3036 14.0304H26.3027Z" fill="white"/>
<path d="M27.1453 14.1252C27.1533 14.106 27.4392 13.4429 27.9864 14.1695L28.0587 14.2708C28.0851 14.2977 28.1097 14.3262 28.133 14.3547C28.3762 14.6552 28.5835 14.9838 28.8227 15.2875L28.816 15.302C29.2476 15.8834 29.6573 16.4821 30.0728 17.0759C30.2223 17.3156 30.3593 17.6272 30.2513 17.9103C30.1088 18.1336 29.865 18.2589 29.6446 18.3868C29.1736 18.6412 28.6602 18.8181 28.133 18.898C27.6112 18.9582 27.0826 18.8721 26.58 18.7292C26.0783 18.5798 25.5744 18.3726 25.19 17.999C25.1811 17.9904 25.1628 17.973 25.1543 17.9643C24.9519 17.7002 24.9622 17.3001 25.1505 17.0315C25.7423 16.1459 26.348 15.2697 26.9398 14.3837C27.0023 14.2933 27.0592 14.1946 27.1453 14.1252ZM26.5038 17.373C26.4626 17.3676 26.4227 17.3949 26.3958 17.4791C26.3794 17.5303 26.3805 17.5853 26.3823 17.6392C26.3852 17.7299 26.4706 18.0847 26.5771 18.025C26.6008 18.0119 26.6253 17.9784 26.6504 17.917C26.6899 17.8204 26.6915 17.6665 26.6553 17.5495C26.6455 17.5179 26.6328 17.4889 26.6176 17.4646C26.5877 17.4168 26.5454 17.3782 26.5038 17.373ZM28.4812 16.2492C28.4254 16.2093 28.3609 16.2155 28.323 16.3341C28.3067 16.3853 28.3078 16.4403 28.3095 16.4942C28.3121 16.5727 28.3768 16.8471 28.4629 16.882C28.4988 16.8973 28.5379 16.8725 28.5787 16.773C28.6182 16.6763 28.6198 16.5217 28.5835 16.4045C28.5737 16.373 28.5611 16.3439 28.5459 16.3196C28.528 16.2911 28.5052 16.2661 28.4812 16.2492ZM27.3459 15.0029C27.31 14.9885 27.2654 15.0027 27.2157 15.0685C27.1835 15.1112 27.1671 15.1638 27.1511 15.2152C27.1264 15.2945 27.094 15.6059 27.181 15.6425C27.21 15.656 27.2529 15.6379 27.3141 15.5692C27.3828 15.4917 27.4341 15.3473 27.4385 15.2248C27.4396 15.1918 27.4372 15.1594 27.4308 15.1312C27.4173 15.0722 27.3874 15.0185 27.3459 15.0029Z" fill="white"/>
<path d="M32.21 17.2633C31.7556 17.7448 31.2091 18.1235 30.6409 18.4487C29.8351 18.9031 28.9516 19.2302 28.0352 19.3408C27.4303 19.4157 26.8191 19.3322 26.2303 19.1882C25.4915 18.9941 24.7874 18.6716 24.1411 18.2591C24.1222 18.2477 24.0848 18.224 24.0664 18.2121C24.1611 18.4185 24.3187 18.5825 24.4441 18.7685C24.4762 18.8082 24.4816 18.8603 24.4847 18.911C24.5342 18.9393 24.5847 18.9672 24.636 18.9945C25.7288 19.5368 26.9574 19.9045 28.1802 19.7236C29.6167 19.4907 30.9872 18.8425 32.1006 17.8864C32.6796 17.3803 33.1689 16.7508 33.4551 16.024C33.5854 15.6933 33.672 15.3467 33.7483 14.999C33.6139 15.0511 33.4782 15.0994 33.3412 15.1438C33.1612 15.9381 32.7693 16.6818 32.2099 17.2633L32.21 17.2633Z" fill="white"/>
<path d="M31.6507 8.28657C31.0169 7.85626 30.3414 7.49315 29.6455 7.18024C28.9937 6.90481 28.3036 6.66225 27.5884 6.69191C27.0973 6.70512 26.6375 6.90207 26.188 7.08564C25.6327 7.32505 25.0908 7.59589 24.5573 7.8818C23.9051 8.23718 23.2448 8.60722 22.718 9.14753C22.2609 9.59928 21.9127 10.1648 21.7158 10.7838C21.6087 11.0907 21.5297 11.4068 21.4484 11.722C21.2953 12.3689 21.194 13.033 21.2239 13.7008C21.2981 14.4244 21.3757 15.1557 21.5873 15.8532C21.8694 16.6822 22.4181 17.393 23.0672 17.9572C23.5037 18.3262 23.9832 18.6405 24.4841 18.9109C24.481 18.8603 24.4756 18.8082 24.4435 18.7685C24.3181 18.5826 24.1604 18.4185 24.0658 18.212C23.9092 18.1083 23.7516 18.0056 23.6015 17.8928C22.7096 17.2368 21.9824 16.2707 21.7963 15.1434C21.6587 14.3463 21.5342 13.5296 21.6507 12.7216C21.7516 12.0176 21.9195 11.3214 22.1673 10.6569C22.3628 10.127 22.703 9.66157 23.111 9.28291C23.6364 8.79957 24.2667 8.46023 24.8918 8.13322C25.5351 7.80291 26.1811 7.47268 26.8614 7.22738C27.1507 7.1219 27.4582 7.0634 27.7663 7.07484C28.3663 7.09039 28.9421 7.29362 29.4909 7.52748C30.1775 7.83079 30.8363 8.19898 31.464 8.61423C32.035 8.98741 32.5466 9.47526 32.8872 10.0792C33.1194 10.4679 33.2532 10.9059 33.3399 11.3504C33.4738 12.026 33.6346 12.708 33.6015 13.4031C33.5881 13.9792 33.4626 14.5433 33.3497 15.1052L33.3408 15.1439C33.4778 15.0996 33.6135 15.0512 33.748 14.9992L33.7551 14.9649C33.9154 14.1801 34.0439 13.373 33.9386 12.5704C33.8632 12.0433 33.76 11.5207 33.6431 11.0018L33.545 10.6403C33.3831 10.1399 33.1212 9.67479 32.782 9.27743C32.4641 8.88273 32.0669 8.56523 31.6507 8.28657Z" fill="white"/>
<path fill-rule="evenodd" clip-rule="evenodd" d="M30.724 9.30848C30.9774 9.22771 31.2363 9.35349 31.4359 9.50815C31.9341 9.89971 32.2924 10.453 32.5326 11.0419C32.7285 11.5283 32.8778 12.0482 32.8702 12.5794C32.8714 12.8606 32.7429 13.1652 32.4834 13.2894C32.269 13.4049 32.0198 13.3967 31.785 13.3926C30.6297 13.3729 29.4747 13.3411 28.3212 13.2826C28.1778 13.263 27.9572 13.2668 27.9228 13.082C27.9188 12.8967 28.0524 12.7463 28.135 12.591C28.6961 11.7164 29.3337 10.8964 29.9417 10.056C30.1635 9.77195 30.3563 9.41136 30.724 9.30848ZM29.4941 12.4261C29.4627 12.4334 29.4332 12.4434 29.4083 12.4569C29.384 12.4701 29.362 12.4869 29.3446 12.5052C29.318 12.533 29.3031 12.5651 29.3099 12.5968C29.3144 12.6176 29.3279 12.6386 29.3542 12.6576C29.3675 12.6672 29.3845 12.676 29.4044 12.6846C29.4285 12.695 29.4537 12.7011 29.4796 12.7048L29.5597 12.7116C29.5869 12.7129 29.6385 12.709 29.6957 12.6991C29.7243 12.6941 29.7544 12.6875 29.7835 12.6798C29.9 12.6486 30.0013 12.5949 29.9349 12.5206C29.9185 12.5021 29.8915 12.4819 29.852 12.4608C29.7611 12.4126 29.6111 12.3989 29.4941 12.4261ZM31.0172 10.5605C30.916 10.5766 30.7861 10.6566 30.7076 10.7496C30.6865 10.7746 30.6697 10.8008 30.6574 10.8268C30.6153 10.9159 30.6155 11.0223 30.7298 11.0197C30.7326 11.0196 30.7355 11.0189 30.7385 11.0187C30.7524 11.0178 30.7685 11.0172 30.7857 11.0129C30.8111 11.0067 30.835 10.9958 30.8581 10.983L30.9275 10.9396C31.0122 10.8823 31.3285 10.5499 31.077 10.5547C31.0599 10.555 31.04 10.5569 31.0172 10.5605Z" fill="white"/>
<path fill-rule="evenodd" clip-rule="evenodd" d="M27.9188 7.81135C28.4124 7.7411 28.9114 7.88299 29.3743 8.05057C29.7356 8.19802 30.114 8.37161 30.3621 8.6901C30.516 8.88411 30.4502 9.15965 30.3168 9.34507C29.7088 10.2412 29.0668 11.1122 28.4271 11.9842C28.2852 12.1692 28.1362 12.3524 27.9564 12.5003C27.8729 12.571 27.7297 12.6056 27.6525 12.507L27.5339 9.37497C27.5324 9.22526 27.5306 9.07525 27.5291 8.92547C27.5322 8.64699 27.4999 8.35331 27.6159 8.09205C27.6681 7.9582 27.7777 7.84286 27.9188 7.81135ZM28.9084 9.68364C28.8873 9.62386 28.8381 9.60963 28.7406 9.70486C28.7034 9.74127 28.6694 9.79542 28.6432 9.85534C28.617 9.91478 28.5984 9.98049 28.592 10.0415C28.5887 10.0745 28.5895 10.1066 28.594 10.1351C28.6114 10.2466 28.6869 10.3449 28.8023 10.2122C28.8373 10.1719 28.8581 10.1206 28.8776 10.0704C28.9026 10.0056 28.9439 9.78156 28.9084 9.68364ZM28.3789 8.27146C28.3518 8.27342 28.3159 8.29482 28.2689 8.34477C28.198 8.4203 28.1424 8.56367 28.1348 8.68624C28.1329 8.71936 28.134 8.75144 28.1397 8.77981C28.1452 8.80774 28.1551 8.83451 28.1676 8.85698C28.1747 8.86979 28.1836 8.88046 28.1927 8.88977C28.201 8.89817 28.2098 8.90464 28.2197 8.90907C28.2555 8.92574 28.3005 8.91383 28.3528 8.8483C28.3861 8.80646 28.4039 8.7545 28.4213 8.70361C28.4503 8.61854 28.4956 8.26143 28.3789 8.27146Z" fill="white"/>
<path fill-rule="evenodd" clip-rule="evenodd" d="M26.6695 7.94669C26.9792 7.87822 27.3752 8.06723 27.3939 8.42321C27.4408 9.3973 27.4672 10.3746 27.5039 11.3498C27.5176 11.9909 27.5161 12.5063 27.4788 12.5903C27.3434 12.7578 27.0481 12.784 26.9048 12.5941C26.2428 11.8684 25.601 11.1237 24.9621 10.3765C24.7332 10.1149 24.4675 9.84107 24.4403 9.4698C24.4023 9.17758 24.6666 8.98997 24.8599 8.82737C25.4031 8.42586 26.0169 8.10932 26.6695 7.94669ZM26.6627 10.7932C26.6314 10.7956 26.6016 10.8322 26.5778 10.9206C26.5509 11.0216 26.5697 11.175 26.6203 11.2861C26.6339 11.3159 26.6495 11.3433 26.6676 11.3652C26.721 11.4303 26.7997 11.4714 26.8489 11.4135C26.8653 11.3945 26.8785 11.3643 26.8865 11.3209C26.8962 11.268 26.8883 11.2137 26.8798 11.1607C26.8732 11.1197 26.8424 11.0253 26.8016 10.9427C26.7747 10.8882 26.7427 10.8387 26.711 10.8125C26.6948 10.7993 26.6786 10.7918 26.6627 10.7932ZM25.1126 9.69166C25.0951 9.69309 25.0773 9.69738 25.0605 9.7042L25.0268 9.72156C24.9033 9.80022 24.9039 10.0167 25.0277 10.0949C25.0582 10.114 25.0943 10.123 25.129 10.1228C25.2359 10.1224 25.3461 10.0391 25.3557 9.92702C25.3665 9.79712 25.2377 9.68148 25.1145 9.69166H25.1126ZM27.2907 8.62095C27.1292 8.07819 26.5117 8.21028 26.1592 8.49073C25.9581 8.65098 25.8056 8.86649 25.6692 9.08685C25.5883 9.21754 25.511 9.36663 25.5014 9.5161C25.4979 9.56775 25.5021 9.61944 25.5177 9.67044C25.5764 9.86087 25.7781 9.97611 25.973 9.9849C26.1683 9.9936 26.3579 9.91639 26.5325 9.8267C26.7522 9.71376 26.965 9.57523 27.119 9.37913C27.273 9.18291 27.3612 8.92026 27.3061 8.67497C27.3019 8.65612 27.2959 8.63838 27.2907 8.62095Z" fill="white"/>
<path fill-rule="evenodd" clip-rule="evenodd" d="M23.7577 9.80899C24.041 9.71016 24.3476 9.86964 24.5323 10.0897C25.2593 10.8985 25.9772 11.7171 26.6949 12.535C26.7997 12.6568 26.9123 12.775 26.9949 12.915C27.0569 13.0086 27.0558 13.148 26.9717 13.2275C26.853 13.3458 26.6734 13.3344 26.5203 13.3394C25.3732 13.3417 24.2257 13.3515 23.0786 13.3346C22.8104 13.3154 22.4708 13.2337 22.3802 12.9362C22.2866 12.5957 22.3364 12.2314 22.4256 11.8954C22.5813 11.3277 22.8457 10.79 23.1992 10.3241C23.3586 10.1271 23.5277 9.92092 23.7577 9.80899ZM25.7544 12.5494C25.715 12.5671 25.7077 12.6154 25.7641 12.7144C25.8156 12.8049 25.9354 12.8992 26.0486 12.9401C26.0791 12.9512 26.1093 12.9582 26.1374 12.9603C26.163 12.9623 26.1885 12.9596 26.2116 12.9546C26.2878 12.9379 26.3359 12.8812 26.2599 12.7694C26.2297 12.7252 26.1852 12.6933 26.1422 12.6623C26.0807 12.6182 25.8404 12.5102 25.7544 12.5494ZM23.9188 10.626C23.7482 10.6655 23.693 10.7887 23.5985 10.9241C23.3297 11.309 23.0625 11.6472 23.15 12.1559C23.1587 12.2065 23.1715 12.2574 23.1915 12.3044C23.2061 12.3392 23.224 12.3723 23.2484 12.4009C23.3056 12.4678 23.3998 12.5073 23.4818 12.478C23.5577 12.4508 23.6048 12.3752 23.6458 12.3044C23.8416 11.9663 24.0374 11.6279 24.2332 11.2897C24.3012 11.1724 24.3718 11.0443 24.3577 10.9086C24.3548 10.8811 24.3483 10.8555 24.3393 10.8315C24.2788 10.6669 24.0875 10.587 23.9188 10.626Z" fill="white"/>
<path d="M25.0542 19.4671C24.9118 19.3123 24.7412 19.1803 24.635 18.9943C24.5836 18.967 24.5336 18.9392 24.4841 18.9109C23.9832 18.6405 23.5037 18.3262 23.0672 17.9572C22.4181 17.393 21.8694 16.6822 21.5873 15.8532C21.3757 15.1557 21.2981 14.4244 21.2239 13.7008C21.194 13.033 21.2953 12.3689 21.4484 11.722C21.4484 11.722 20.973 13.2409 20.7471 13.6513C20.7265 14.0317 20.7739 14.415 20.8257 14.7918C20.9123 15.4026 21.0368 16.0215 21.2953 16.582L21.2878 16.6003C21.536 17.238 21.9061 17.824 22.3753 18.3146H22.3882C22.5881 18.5517 22.8347 18.7426 23.0744 18.9359C23.9645 19.6137 24.9846 20.1454 26.0801 20.3597C25.7337 20.0678 25.3702 19.7951 25.0542 19.4671Z" fill="white"/>
<path d="M21.7168 10.7834C21.9137 10.1645 22.2619 9.59895 22.719 9.1472C23.2458 8.60681 23.9061 8.23685 24.5583 7.88147C25.0918 7.59548 25.6337 7.32464 26.189 7.08531C26.6386 6.90166 27.0984 6.70479 27.5894 6.69158C28.3046 6.66192 28.9948 6.90448 29.6465 7.17991C30.3424 7.49282 31.0179 7.85593 31.6517 8.28625C32.0679 8.5649 32.464 8.88273 32.782 9.27743C33.1212 9.67479 33.3831 10.1399 33.545 10.6403L33.123 9.08225C32.4016 8.21211 31.4181 7.62119 30.4325 7.11327C29.6492 6.72252 28.8207 6.37634 27.9439 6.30365C27.218 6.24289 26.5202 6.50922 25.8653 6.79746C25.1854 7.10674 24.5185 7.44608 23.869 7.81701C23.1895 8.20026 22.552 8.6803 22.0627 9.302C21.6114 9.8515 21.3686 10.5357 21.1485 11.2072C20.9048 11.9957 20.7034 12.8188 20.7485 13.6511C20.9744 13.2408 21.4494 11.7216 21.4494 11.7216C21.5307 11.4064 21.6097 11.0904 21.7168 10.7834Z" fill="white"/>
<path d="M34.4435 12.6356C34.3667 12.0804 34.2345 11.5352 34.071 11.0004C33.9607 10.5326 33.7902 10.1358 33.624 9.82657C33.6131 9.8061 33.6021 9.78588 33.5907 9.76573C33.499 9.60078 33.41 9.46306 33.3345 9.35556C33.3211 9.33638 33.3082 9.31833 33.2957 9.30117C33.1918 9.15797 33.1219 9.08166 33.1219 9.08166L33.6425 11.0008C33.7595 11.5197 33.8627 12.0423 33.938 12.5694C34.0434 13.372 33.9149 14.1791 33.7545 14.9639C34.0046 14.8461 34.2139 14.6615 34.4282 14.4884C34.4938 13.874 34.531 13.2494 34.4435 12.6356Z" fill="white"/>
</g>
</svg>
