<svg width="20" height="20" viewBox="0 0 20 20" fill="none" xmlns="http://www.w3.org/2000/svg">
<path d="M15.864 2.79706C14.9424 2.1929 13.9602 1.68309 12.9483 1.24377C12.0005 0.85706 10.9971 0.51651 9.95718 0.558146C9.24308 0.576701 8.57455 0.853213 7.92091 1.11094C7.11348 1.44708 6.32552 1.82734 5.54981 2.22876C4.60141 2.72771 3.64134 3.24724 2.87536 4.00584C2.21073 4.6401 1.70435 5.43411 1.41818 6.30313C1.26233 6.73408 1.14748 7.17781 1.0293 7.62041C0.806686 8.52858 0.659422 9.46108 0.702937 10.3987C0.810694 11.4145 0.923603 12.4413 1.2313 13.4206C1.64148 14.5846 2.4393 15.5825 3.38311 16.3746C4.01785 16.8927 4.71501 17.334 5.44331 17.7137C5.43884 17.6425 5.43106 17.5694 5.38434 17.5137C5.20192 17.2526 4.97266 17.0223 4.83513 16.7324C4.60737 16.5868 4.37823 16.4426 4.16008 16.2842C2.86311 15.3632 1.8057 14.0068 1.5351 12.4241C1.33516 11.3049 1.154 10.1582 1.32348 9.0238C1.47017 8.03541 1.71431 7.058 2.07457 6.12505C2.35891 5.38105 2.85349 4.72756 3.44678 4.19591C4.21081 3.5173 5.12726 3.04088 6.03614 2.58176C6.97148 2.118 7.91083 1.65435 8.9 1.30996C9.32072 1.16186 9.76789 1.07972 10.2159 1.09578C11.0882 1.11762 11.9255 1.40296 12.7235 1.73129C13.7218 2.15714 14.6798 2.67408 15.5925 3.25708C16.4227 3.78103 17.1666 4.46598 17.6618 5.31384C17.9994 5.85963 18.1941 6.47465 18.3201 7.09862C18.5148 8.04718 18.7486 9.00467 18.7005 9.98073C18.681 10.7894 18.4986 11.5815 18.3344 12.3703L18.3214 12.4248C18.5207 12.3625 18.718 12.2947 18.9135 12.2216L18.9238 12.1735C19.1569 11.0716 19.3438 9.93841 19.1906 8.81155C19.081 8.0715 18.931 7.33779 18.7609 6.60929L18.6184 6.10175C18.3829 5.39915 18.002 4.74611 17.5088 4.18822C17.0467 3.63406 16.4696 3.18841 15.8646 2.79717L15.864 2.79706Z" fill="#DDDD23"/>
<path d="M18.9138 12.2196C18.8028 12.7076 18.6768 13.1944 18.4873 13.6588C18.0712 14.679 17.3598 15.5628 16.5179 16.2735C14.899 17.6158 12.9062 18.5259 10.8174 18.8529C9.03944 19.1069 7.25304 18.5906 5.66406 17.8293C5.81854 18.0903 6.06646 18.2757 6.27361 18.4932C6.73315 18.9537 7.26152 19.3365 7.76526 19.7463C8.79026 20.0176 9.87493 20.0292 10.9317 19.9726C13.1562 19.7789 15.2853 18.8503 17.0106 17.4632C17.7181 16.8917 18.3016 16.1753 18.7314 15.3802C19.3882 14.1853 19.7375 12.8469 19.9037 11.5039C19.5921 11.7469 19.2878 12.0061 18.9242 12.1715L18.9139 12.2196H18.9138Z" fill="#579932"/>
<path d="M14.5128 4.2326C14.8815 4.11916 15.2578 4.29655 15.548 4.51385C16.2724 5.06359 16.7925 5.84046 17.1417 6.66717C17.4265 7.34987 17.6439 8.07883 17.6329 8.82439C17.6349 9.2193 17.448 9.64707 17.0704 9.82146C16.7587 9.9837 16.3971 9.97274 16.0558 9.96697C14.3759 9.93937 12.6969 9.89469 11.0197 9.81267C10.8112 9.78495 10.4896 9.79021 10.4396 9.53045C10.4339 9.27024 10.6292 9.05905 10.7491 8.84099C11.5651 7.61306 12.4921 6.46227 13.3761 5.2824C13.6987 4.88347 13.978 4.37696 14.5128 4.2326ZM12.7257 8.6076C12.68 8.61788 12.6379 8.63259 12.6017 8.65154C12.5827 8.66144 12.5637 8.67151 12.547 8.68377C12.4374 8.76314 12.3906 8.88834 12.5929 8.97283C12.6637 9.00236 12.7427 9.00609 12.8195 9.00994C12.9277 9.01524 13.3041 8.95905 13.381 8.84685C13.4181 8.79528 13.3925 8.73272 13.2462 8.6574C13.114 8.58956 12.8959 8.56939 12.7257 8.6076ZM14.9991 5.98455C14.9816 5.98583 14.9624 5.9872 14.9415 5.99041C14.9046 5.99609 14.8646 6.0068 14.8243 6.02263C14.7035 6.06957 14.5755 6.15754 14.4894 6.25603C14.4586 6.29121 14.4331 6.3279 14.4152 6.36443C14.3454 6.50719 14.3564 6.68331 14.6017 6.62517C14.6388 6.61639 14.6735 6.60113 14.7072 6.58318C14.7419 6.56481 14.7758 6.54413 14.8087 6.52263C14.932 6.4421 15.3924 5.97516 15.0255 5.9826H15.0226C15.0151 5.98275 15.0073 5.984 14.9991 5.98455Z" fill="#CAD85A"/>
<path d="M11.1904 10.0126C12.8574 10.08 14.5252 10.1439 16.1895 10.2548C16.6626 10.3113 17.2619 10.4428 17.4522 10.9335C17.5832 11.4708 17.5057 12.0397 17.3428 12.5624C17.3395 12.5707 17.3334 12.5872 17.3301 12.5956C16.9153 13.7205 16.1858 14.8162 15.0654 15.3505C14.6279 15.5838 14.0792 15.4285 13.7676 15.0663C13.4482 14.6937 13.1647 14.2928 12.8662 13.9042C12.5222 13.425 12.1335 12.9769 11.8135 12.4813L11.8027 12.5038C11.4878 12.0324 11.1351 11.5872 10.8105 11.1229C10.6755 10.9113 10.5208 10.6857 10.5215 10.4266C10.5599 10.1189 10.9114 9.98382 11.1904 10.0126ZM14.501 13.4911C14.3646 13.4842 14.2474 13.5507 14.3516 13.743C14.3879 13.8098 14.4468 13.8613 14.5039 13.912C14.5774 13.9769 14.8564 14.1403 15.0049 14.1395C15.0946 14.1394 15.1367 14.0803 15.0586 13.9032C14.9991 13.7684 14.8422 13.6177 14.6855 13.5419C14.6433 13.5213 14.6009 13.5058 14.5605 13.4979C14.541 13.4942 14.5213 13.4921 14.502 13.4911H14.501ZM11.9229 11.1053C11.9098 11.1066 11.8971 11.1078 11.8857 11.1122C11.829 11.1331 11.7956 11.1955 11.8174 11.3182C11.8307 11.3927 11.8698 11.4598 11.9082 11.5253C11.9677 11.6273 12.2667 11.9597 12.3887 11.8954C12.4288 11.8752 12.4504 11.8143 12.4385 11.6883C12.4245 11.5419 12.323 11.3499 12.1982 11.2294C12.1646 11.197 12.1293 11.17 12.0938 11.1503C12.0412 11.1211 11.9832 11.1028 11.9336 11.1044H11.9326C11.9293 11.1045 11.9261 11.1051 11.9229 11.1053ZM15.2939 11.1073C15.2832 11.1087 15.2723 11.1085 15.2627 11.1122C15.2059 11.1331 15.1725 11.1954 15.1943 11.3182C15.2077 11.3927 15.2469 11.4598 15.2852 11.5253C15.3443 11.6266 15.6403 11.9561 15.7637 11.8973C15.8056 11.8787 15.8286 11.8173 15.8164 11.6883C15.8026 11.5419 15.7011 11.3499 15.5762 11.2294C15.5424 11.1968 15.5064 11.1701 15.4707 11.1503C15.4184 11.1213 15.361 11.1029 15.3115 11.1044H15.3096C15.3042 11.1045 15.2991 11.1067 15.2939 11.1073Z" fill="#CAD85A"/>
<path d="M8.72403 10.072C8.95056 10.058 9.2249 10.1301 9.30606 10.3659C9.40019 10.6173 9.20641 10.8405 9.07266 11.0349C8.12039 12.3137 7.15474 13.582 6.1791 14.8435C5.95708 15.1532 5.67268 15.459 5.28067 15.5398C4.87977 15.6108 4.52808 15.351 4.23281 15.1189C3.08396 14.1273 2.32061 12.655 2.35879 11.1306C2.37883 10.7643 2.70458 10.5067 3.02578 10.3835C3.47234 10.1983 3.96312 10.2195 4.43692 10.2048C4.88149 10.1875 5.32604 10.1829 5.76992 10.156C6.75462 10.1341 7.73944 10.0893 8.72403 10.072ZM6.03946 12.698C6.01963 12.6393 5.95255 12.6229 5.80508 12.6911C5.67026 12.7534 5.5214 12.9123 5.44864 13.0691C5.42894 13.1114 5.41449 13.154 5.40762 13.1941C5.39567 13.2646 5.403 13.3365 5.43301 13.3835C5.45272 13.4147 5.48205 13.4352 5.52481 13.4362V13.4353C5.56102 13.4362 5.60625 13.4245 5.66153 13.3933C5.72802 13.3558 5.77902 13.2968 5.82852 13.239C5.89859 13.1573 6.08363 12.8262 6.03946 12.698ZM4.38906 11.1042C4.31292 11.0956 4.23607 11.1139 4.16153 11.1316C4.03644 11.1613 3.57466 11.377 3.6791 11.5105C3.70285 11.5417 3.75742 11.5687 3.85391 11.5876C3.99991 11.616 4.21516 11.5738 4.36758 11.49C4.40857 11.4674 4.44564 11.442 4.475 11.4138C4.54692 11.3447 4.59341 11.2525 4.55703 11.1862C4.5356 11.1461 4.48366 11.115 4.38906 11.1042ZM8.08828 10.8581C8.01212 10.8495 7.93531 10.8669 7.86074 10.8845C7.7094 10.9204 7.06625 11.2275 7.52676 11.3327C7.53576 11.3348 7.54522 11.3386 7.55508 11.3405C7.58395 11.3462 7.61561 11.346 7.64883 11.3464C7.65689 11.3465 7.665 11.3476 7.67324 11.3474C7.803 11.3442 7.95378 11.3062 8.06875 11.2429C8.10975 11.2203 8.14681 11.1948 8.17617 11.1667C8.29114 11.0562 8.34187 10.8867 8.09121 10.8581H8.08828Z" fill="#CAD85A"/>
<path d="M10.4423 2.13143C11.1603 2.03267 11.8853 2.23107 12.5585 2.4664C13.0841 2.67354 13.6351 2.9172 13.996 3.36483C14.2198 3.63727 14.1237 4.02444 13.9296 4.28475C13.0456 5.54289 12.1117 6.76466 11.1815 7.98886C10.9751 8.24856 10.7594 8.50675 10.4979 8.71444C10.3766 8.81377 10.1668 8.86264 10.0546 8.72421L9.8827 4.32577C9.88052 4.11556 9.87815 3.90523 9.87586 3.69491C9.88044 3.30379 9.83305 2.89092 10.0018 2.52401C10.0778 2.33617 10.2372 2.17566 10.4423 2.13143ZM11.8016 4.69296C11.7622 4.69423 11.7086 4.72256 11.6376 4.78964C11.5298 4.89135 11.4409 5.0898 11.4227 5.26132C11.4178 5.30752 11.4182 5.35218 11.4247 5.39218C11.4405 5.48998 11.4895 5.58082 11.5653 5.58944C11.6108 5.59497 11.6662 5.57061 11.7294 5.50057C11.7546 5.47239 11.7747 5.44049 11.7919 5.40682C11.8092 5.37288 11.8236 5.33663 11.8378 5.30136C11.8851 5.18314 11.9717 4.68601 11.8016 4.69296ZM11.2177 2.95272C11.2038 2.79001 11.1377 2.68885 10.952 2.87948C10.8817 2.95185 10.8234 3.0695 10.7889 3.191C10.7727 3.24805 10.7602 3.30578 10.7567 3.36093C10.7539 3.4074 10.7563 3.45198 10.7645 3.49179C10.7967 3.64697 10.9136 3.78047 11.0731 3.58749C11.1215 3.52881 11.1475 3.45576 11.1727 3.38436C11.1979 3.31305 11.2309 3.10527 11.2177 2.95272Z" fill="#CAD85A"/>
<path d="M9.30741 10.9935C9.3162 10.9733 9.73223 10.0315 10.531 11.056L10.6355 11.1976C10.6741 11.2355 10.71 11.2756 10.7439 11.3158C11.0976 11.7377 11.3991 12.1989 11.7469 12.6254L11.7371 12.6449C12.3647 13.4613 12.96 14.3015 13.5642 15.1351C13.7818 15.4718 13.9809 15.9094 13.824 16.307C13.6169 16.6206 13.2618 16.7964 12.9412 16.976C12.2565 17.3332 11.5104 17.5825 10.7439 17.6947C9.98525 17.7793 9.21688 17.6581 8.48612 17.4574C7.75671 17.2477 7.02353 16.9574 6.46464 16.433C6.4517 16.4209 6.42611 16.3954 6.41386 16.3832C6.1193 16.0124 6.13314 15.4518 6.40702 15.0746C7.2677 13.8311 8.14888 12.601 9.00956 11.3568C9.10045 11.2299 9.18217 11.091 9.30741 10.9935ZM8.54081 15.682C8.45673 15.5524 8.30685 15.4705 8.22636 15.683C8.22382 15.6896 8.21997 15.6963 8.21757 15.7035C8.19381 15.7755 8.1965 15.8532 8.19901 15.9291C8.20445 16.0851 8.38813 16.7922 8.58866 16.3187C8.59804 16.2966 8.60276 16.2714 8.60917 16.2455C8.6423 16.1128 8.63973 15.939 8.5955 15.8012C8.58131 15.7569 8.56288 15.7162 8.54081 15.682ZM11.1766 13.9457C11.1165 13.9379 11.0575 13.9767 11.0184 14.0951C10.9944 14.1672 10.9973 14.2448 10.9998 14.3207C11.0038 14.4377 11.1081 14.8648 11.2449 14.8705C11.2911 14.8744 11.3413 14.8308 11.3924 14.7103C11.4497 14.5745 11.451 14.3581 11.3982 14.1937C11.384 14.1495 11.3657 14.1087 11.3435 14.0746C11.2996 14.0069 11.2374 13.9522 11.1766 13.9457ZM9.56913 12.2191C9.53868 12.2177 9.50481 12.2291 9.46855 12.2592C9.45047 12.2742 9.43212 12.2941 9.41288 12.3187C9.36597 12.3787 9.34151 12.4525 9.31815 12.5248C9.31219 12.5433 9.3063 12.5708 9.30058 12.6039C9.28332 12.704 9.27021 12.8562 9.28593 12.9711C9.2964 13.0476 9.31991 13.1073 9.3621 13.1244C9.40424 13.1414 9.46518 13.1156 9.55253 13.0209C9.60263 12.9665 9.64738 12.889 9.67948 12.8031C9.71163 12.7171 9.73108 12.6228 9.73417 12.5365C9.73576 12.4902 9.73267 12.4462 9.72343 12.4066C9.71887 12.3872 9.71296 12.3681 9.70585 12.35C9.69173 12.3141 9.67325 12.2816 9.65019 12.2582C9.6271 12.2348 9.5996 12.2205 9.56913 12.2191Z" fill="#CBD85A"/>
<path d="M8.62252 2.31724C9.04495 2.22716 9.5778 2.4561 9.66452 2.89732L9.67623 2.98814C9.74448 4.35573 9.78314 5.72638 9.83639 7.09556C9.85643 7.99592 9.85356 8.71986 9.79928 8.83775V8.83872C9.60255 9.07417 9.17273 9.11028 8.96432 8.84361C8.00167 7.82461 7.068 6.77941 6.13913 5.73033C5.80623 5.36298 5.42 4.97808 5.38034 4.45689C5.32516 4.04669 5.70959 3.7828 5.99069 3.55454C6.7806 2.99077 7.67356 2.54555 8.62252 2.31724ZM8.61178 6.31529C8.5665 6.31918 8.52398 6.36965 8.48971 6.49302C8.45032 6.6349 8.47651 6.85033 8.55026 7.00669C8.57007 7.04849 8.59333 7.08619 8.61959 7.11704C8.68411 7.19302 8.7737 7.2456 8.84323 7.2147C8.8865 7.19746 8.9228 7.14982 8.94088 7.05552C8.9552 6.98096 8.94262 6.90374 8.93014 6.82896C8.91084 6.71324 8.75198 6.3029 8.61569 6.31431L8.61178 6.31529ZM6.36178 4.76841C6.35052 4.7693 6.33972 4.77293 6.32858 4.77525C6.31522 4.77812 6.30155 4.77995 6.28854 4.78501L6.28561 4.78599H6.28659L6.23678 4.8104C6.05707 4.92073 6.05765 5.22513 6.23776 5.33482C6.28309 5.3624 6.33439 5.37371 6.3862 5.3729C6.39307 5.37283 6.39983 5.37147 6.4067 5.37095C6.47688 5.36531 6.54691 5.33912 6.60202 5.29478L6.65768 5.23911C6.68895 5.19867 6.70971 5.15061 6.71432 5.09849C6.73016 4.91619 6.5427 4.75454 6.36373 4.76841H6.36178ZM9.55026 3.3397C9.43002 2.82273 9.03403 2.68973 8.6235 2.75572C8.59587 2.76012 8.56818 2.76518 8.54049 2.77134C8.4928 2.78201 8.44513 2.79497 8.39791 2.8104C8.26489 2.85373 8.13601 2.91566 8.01901 2.98814C8.00768 2.99517 7.99591 3.00141 7.98483 3.00865C7.94881 3.03212 7.91341 3.05648 7.88034 3.08189C7.58783 3.30689 7.36581 3.60939 7.16745 3.9188C7.00942 4.16533 6.85812 4.4588 6.94674 4.73716C7.03203 5.00476 7.32604 5.16723 7.60983 5.17954C7.67345 5.18228 7.73672 5.17707 7.79928 5.1688C7.85116 5.16202 7.9026 5.15239 7.95358 5.13951C8.01019 5.12513 8.06524 5.10496 8.12057 5.08482C8.2239 5.04729 8.32642 5.00445 8.42428 4.95591C8.56595 4.88559 8.70414 4.80589 8.83541 4.71763C8.85724 4.70293 8.87952 4.68901 8.90084 4.67368C9.04046 4.57351 9.16971 4.46093 9.2778 4.32798C9.50172 4.05254 9.63032 3.68402 9.55026 3.3397Z" fill="#CAD85A"/>
<path d="M4.38589 4.93284C4.798 4.79375 5.24324 5.01732 5.51187 5.3264C6.56924 6.46217 7.61363 7.61144 8.65738 8.75999C8.80991 8.93129 8.97378 9.09731 9.0939 9.29417C9.184 9.42558 9.18216 9.62111 9.05972 9.73265C8.88704 9.89874 8.62608 9.88188 8.40347 9.8889C6.73541 9.89207 5.06665 9.9068 3.39859 9.88304C3.00856 9.85611 2.51563 9.74107 2.38394 9.32347C2.24772 8.84511 2.31956 8.33348 2.44937 7.86156C2.67588 7.06438 3.06032 6.30967 3.57437 5.6555C3.8061 5.37904 4.05158 5.08996 4.38589 4.93284ZM7.32828 8.77074C7.2841 8.77616 7.25362 8.79494 7.24624 8.83324C7.23895 8.87147 7.25492 8.92901 7.30386 9.01195C7.34132 9.07548 7.40328 9.14049 7.47671 9.19652C7.55007 9.2525 7.63468 9.29967 7.71695 9.32835C7.73932 9.33621 7.76161 9.34302 7.78335 9.34788C7.80469 9.35266 7.82565 9.35612 7.84585 9.35765C7.91218 9.36267 7.97848 9.35127 8.02359 9.32347C8.08749 9.28427 8.10914 9.20997 8.02457 9.09007C7.98073 9.02793 7.91636 8.98331 7.85367 8.93968C7.77306 8.88362 7.47558 8.75247 7.32828 8.77074ZM4.62124 6.08128C4.43498 6.12288 4.34332 6.2309 4.25113 6.36253L4.15542 6.50023C3.76459 7.04069 3.37574 7.51547 3.50308 8.22972C3.51577 8.30068 3.5347 8.37178 3.56363 8.43773C3.58482 8.48629 3.61043 8.5325 3.64566 8.57249C3.72869 8.6665 3.86617 8.72286 3.9855 8.68187C4.09578 8.64367 4.16417 8.53709 4.22378 8.43773C4.50846 7.96299 4.79348 7.48777 5.07828 7.01292C5.17708 6.84811 5.27932 6.66813 5.25894 6.47777C5.25485 6.43991 5.24612 6.40443 5.23355 6.37132C5.14621 6.13921 4.8671 6.02634 4.62124 6.08128Z" fill="#CAD85A"/>
<path d="M16.6752 15.3988C16.0144 16.0748 15.2198 16.6065 14.3936 17.0631C13.2219 17.7011 11.9373 18.1603 10.6047 18.3156C9.72517 18.4208 8.83655 18.3035 7.98034 18.1014C6.90609 17.8288 5.88235 17.3761 4.94254 16.7969C4.91517 16.7808 4.86067 16.7476 4.83398 16.7308C4.97163 17.0207 5.20077 17.2509 5.38319 17.512C5.42991 17.5678 5.4377 17.6409 5.44216 17.7121C5.51419 17.7519 5.58759 17.791 5.66226 17.8294C7.25124 18.5907 9.03764 19.107 10.8156 18.853C12.9044 18.526 14.8971 17.6159 16.5161 16.2736C17.358 15.563 18.0694 14.6793 18.4855 13.6589C18.675 13.1945 18.801 12.7078 18.912 12.2197C18.7165 12.2928 18.5192 12.3607 18.3199 12.4229C18.0583 13.5383 17.4883 14.5823 16.6751 15.3987L16.6752 15.3988Z" fill="#D8D30F"/>
<path d="M6.27181 18.4936C6.06477 18.2763 5.81673 18.0909 5.66226 17.8297C5.58759 17.7914 5.51419 17.7521 5.44216 17.7124C4.71386 17.3327 4.01671 16.8916 3.38196 16.3733C2.43815 15.5812 1.64034 14.5833 1.23015 13.4193C0.922454 12.44 0.809545 11.4133 0.701788 10.3974C0.658273 9.4598 0.805651 8.52731 1.02815 7.61914C1.02815 7.61914 0.337523 9.75204 0.00909984 10.3281C-0.020788 10.8623 0.0480342 11.4005 0.123384 11.9295C0.249348 12.787 0.430393 13.6559 0.806224 14.4429L0.79523 14.4686C1.15617 15.3639 1.69439 16.1867 2.37654 16.8755H2.39532C2.68607 17.2084 3.04449 17.4764 3.39307 17.7477C4.68729 18.6994 6.17058 19.4459 7.76357 19.7468C7.25982 19.337 6.73146 18.9541 6.27192 18.4936H6.27181Z" fill="#6AB02E"/>
<path d="M1.41719 6.30189C1.70347 5.43287 2.20973 4.63886 2.87436 4.0046C3.64034 3.24589 4.60041 2.72647 5.54881 2.22752C6.32452 1.82599 7.11248 1.44573 7.91991 1.1097C8.57367 0.85186 9.24219 0.57546 9.95618 0.556905C10.9961 0.51527 11.9997 0.855819 12.9473 1.24253C13.9592 1.68185 14.9414 2.19166 15.863 2.79582C16.4681 3.18706 17.045 3.63271 17.5073 4.18687C18.0006 4.74476 18.3813 5.3978 18.6168 6.10039L18.0023 3.91341C16.9534 2.69173 15.5233 1.86208 14.0902 1.14896C12.9513 0.600351 11.7465 0.114304 10.4716 0.0122527C9.41614 -0.0730543 8.40155 0.300871 7.44927 0.705571C6.46068 1.1398 5.49087 1.61623 4.54648 2.13701C3.55858 2.6751 2.6316 3.34907 1.92013 4.22194C1.26385 4.99344 0.910811 5.9541 0.590747 6.89689C0.236444 8.00385 -0.056365 9.15957 0.00925083 10.3281C0.337674 9.75196 1.0283 7.61906 1.0283 7.61906C1.14648 7.17657 1.26145 6.73273 1.41719 6.30178V6.30189Z" fill="#8ABD24"/>
<path d="M19.9255 8.90276C19.8139 8.12334 19.6217 7.35784 19.384 6.60705C19.2236 5.95016 18.9757 5.39306 18.7339 4.95895C18.7181 4.93021 18.7021 4.90181 18.6856 4.87353C18.5522 4.64193 18.4228 4.44857 18.3131 4.29765C18.2936 4.27072 18.2748 4.24538 18.2566 4.22128C18.1055 4.02023 18.0039 3.91309 18.0039 3.91309L18.6184 6.10007L18.761 6.60761C18.931 7.33612 19.081 8.06982 19.1906 8.80987C19.3438 9.93674 19.1569 11.0699 18.9238 12.1718C19.2874 12.0064 19.5917 11.7472 19.9033 11.5042C19.9987 10.6416 20.0527 9.76488 19.9254 8.90298L19.9255 8.90276Z" fill="#6AB02E"/>
</svg>
